<?xml version="1.0" encoding="utf-8"?>
<!-- Generator: Adobe Illustrator 18.0.0, SVG Export Plug-In . SVG Version: 6.00 Build 0)  -->
<!DOCTYPE svg PUBLIC "-//W3C//DTD SVG 1.1//EN" "http://www.w3.org/Graphics/SVG/1.1/DTD/svg11.dtd">
<svg version="1.1" id="Слой_1" xmlns="http://www.w3.org/2000/svg" xmlns:xlink="http://www.w3.org/1999/xlink" x="0px" y="0px"
	 width="120px" height="38px" viewBox="0 0 120 38" enable-background="new 0 0 120 38" xml:space="preserve">
<g>
	<g>
		<path fill="#E4264F" d="M34.3,17.2c-0.2-0.2-0.6-0.3-1-0.3c-0.4-0.1-0.9-0.1-1.5-0.1h-2.8v3.7h3c1,0,1.7-0.2,2.2-0.5
			c0.5-0.3,0.7-0.8,0.7-1.4c0-0.3-0.1-0.6-0.2-0.8C34.7,17.5,34.5,17.3,34.3,17.2z M33.9,14.3c0.4-0.3,0.6-0.7,0.6-1.3
			c0-0.3,0-0.5-0.1-0.7c-0.1-0.2-0.3-0.4-0.5-0.5c-0.2-0.1-0.5-0.2-0.8-0.3c-0.3-0.1-0.8-0.1-1.3-0.1h-2.7v3.3h2.8
			C32.8,14.7,33.4,14.6,33.9,14.3z M40.4,5.9L16.5,0.1c-2-0.4-3,1-4.2,2.5L0.4,18.1c-1.4,2.2,0.9,3.5,2.4,4.3l29.3,15.4
			c1.8,0.7,3.6-0.1,4.2-2.5l6.5-25.1C43.4,8.2,42.2,6.4,40.4,5.9z M20.9,22.5l-4-5.3L16,18.5l-3,4H9.5l5.6-6.9L9.9,9.3h3.5l2.7,3.5
			c0.1,0.2,0.3,0.4,0.4,0.6s0.3,0.4,0.4,0.6c0.1-0.2,0.3-0.4,0.4-0.6s0.3-0.4,0.4-0.6l2.7-3.5h3.5l-5.2,6.3l5.6,6.9H20.9z
			 M36.6,21.5c-1,0.7-2.4,1-4.4,1h-6.1V9.3h6c0.8,0,1.6,0.1,2.3,0.2c0.7,0.2,1.2,0.4,1.7,0.7c0.5,0.3,0.8,0.6,1.1,1.1
			c0.2,0.4,0.4,0.9,0.4,1.4c0,0.7-0.2,1.2-0.6,1.7c-0.4,0.5-0.9,0.9-1.7,1.2c0.5,0.1,0.9,0.3,1.3,0.5c0.4,0.2,0.7,0.4,0.9,0.7
			c0.2,0.3,0.4,0.6,0.5,0.9c0.1,0.3,0.2,0.7,0.2,1C38.1,19.9,37.6,20.8,36.6,21.5z M56.3,16.4c-0.2-0.3-0.5-0.5-0.8-0.7
			c-0.3-0.2-0.7-0.4-1.1-0.5c-0.4-0.1-0.8-0.3-1.2-0.4c-0.4-0.1-0.9-0.2-1.3-0.3c-0.5-0.1-0.9-0.2-1.3-0.3c-0.3-0.1-0.6-0.2-0.8-0.4
			c-0.2-0.1-0.4-0.3-0.5-0.4c-0.1-0.2-0.1-0.4-0.1-0.6c0-0.3,0.1-0.5,0.2-0.7c0.1-0.2,0.3-0.4,0.5-0.5c0.2-0.1,0.5-0.3,0.8-0.3
			c0.3-0.1,0.7-0.1,1.1-0.1c1.7,0,2.6,0.7,2.7,2h2.4c0-0.6-0.2-1.2-0.4-1.7c-0.3-0.5-0.6-0.9-1-1.3c-0.4-0.4-1-0.6-1.6-0.8
			c-0.6-0.2-1.3-0.3-2.1-0.3c-0.7,0-1.3,0.1-1.9,0.3c-0.6,0.2-1.1,0.4-1.5,0.7c-0.4,0.3-0.8,0.7-1,1.1c-0.2,0.4-0.4,0.9-0.4,1.4
			c0,0.2,0,0.3,0,0.5c0,0.1,0,0.3,0,0.4c0.1,0.6,0.2,1,0.5,1.4c0.3,0.4,0.6,0.7,1,0.9c0.4,0.3,0.9,0.5,1.5,0.6
			c0.6,0.2,1.2,0.3,1.9,0.5c0.5,0.1,0.9,0.2,1.3,0.4c0.4,0.1,0.7,0.2,0.9,0.4c0.2,0.1,0.4,0.3,0.5,0.5c0.1,0.2,0.2,0.4,0.2,0.7
			c0,0.3-0.1,0.6-0.2,0.8c-0.1,0.2-0.3,0.4-0.6,0.6c-0.2,0.2-0.5,0.3-0.9,0.4c-0.3,0.1-0.7,0.1-1.2,0.1c-0.4,0-0.8-0.1-1.2-0.2
			c-0.4-0.1-0.7-0.3-1-0.5c-0.3-0.2-0.5-0.5-0.7-0.8c-0.2-0.3-0.3-0.7-0.3-1.1h-2.4c0.1,1.5,0.6,2.6,1.5,3.4c1,0.8,2.3,1.2,4.1,1.2
			c0.7,0,1.4-0.1,2.1-0.3c0.6-0.2,1.2-0.5,1.6-0.8c0.5-0.4,0.8-0.8,1.1-1.3c0.3-0.5,0.4-1.1,0.4-1.7c0-0.5-0.1-0.9-0.2-1.3
			C56.7,17,56.5,16.7,56.3,16.4z M66.1,14c-0.4-0.4-0.9-0.7-1.5-1c-0.6-0.2-1.2-0.3-1.9-0.3c-0.7,0-1.4,0.1-1.9,0.3
			c-0.6,0.2-1.1,0.5-1.5,1c-0.4,0.4-0.7,0.9-0.9,1.6c-0.2,0.6-0.3,1.3-0.3,2.1c0,0.8,0.1,1.5,0.3,2.1c0.2,0.6,0.5,1.1,0.9,1.6
			c0.4,0.4,0.9,0.7,1.5,1c0.6,0.2,1.2,0.3,1.9,0.3c0.7,0,1.3-0.1,1.9-0.3c0.6-0.2,1.1-0.5,1.5-1c0.4-0.4,0.7-0.9,0.9-1.6
			c0.2-0.6,0.3-1.3,0.3-2.1c0-0.8-0.1-1.5-0.3-2.1C66.8,15,66.5,14.5,66.1,14z M64.8,19.1c-0.1,0.4-0.2,0.7-0.4,1
			c-0.2,0.3-0.4,0.5-0.7,0.6c-0.3,0.1-0.6,0.2-0.9,0.2c-0.3,0-0.6-0.1-0.9-0.2c-0.3-0.1-0.5-0.3-0.7-0.6c-0.2-0.3-0.3-0.6-0.4-1
			c-0.1-0.4-0.2-0.9-0.2-1.4c0-0.5,0.1-1,0.2-1.4c0.1-0.4,0.3-0.7,0.4-1c0.2-0.3,0.4-0.5,0.7-0.6c0.3-0.1,0.6-0.2,0.9-0.2
			c0.3,0,0.6,0.1,0.9,0.2c0.3,0.1,0.5,0.3,0.7,0.6c0.2,0.3,0.3,0.6,0.4,1c0.1,0.4,0.2,0.9,0.2,1.4C64.9,18.3,64.9,18.8,64.8,19.1z
			 M72.3,9c-1,0-1.8,0.3-2.2,0.8c-0.5,0.5-0.7,1.3-0.7,2.4V13h-1.3v1.8h1.3v7.7h2.4v-7.7h1.7V13h-1.7v-0.7c0-0.5,0.1-0.8,0.2-1.1
			c0.2-0.2,0.4-0.3,0.8-0.3c0.2,0,0.4,0,0.5,0c0.2,0,0.3,0,0.5,0.1V9.2c-0.2,0-0.4-0.1-0.7-0.1C72.9,9,72.6,9,72.3,9z M78.6,20.8
			c-0.1,0-0.2-0.1-0.3-0.2c-0.1-0.1-0.1-0.3-0.2-0.4c0-0.2-0.1-0.4-0.1-0.7v-4.6h1.5V13h-1.5v-2.4h-2.4V13h-1.2v1.8h1.2v3.7
			c0,0.4,0,0.8,0,1.2c0,0.4,0,0.7,0.1,1c0,0.3,0.1,0.6,0.2,0.8c0.1,0.2,0.3,0.4,0.5,0.6c0.2,0.2,0.5,0.3,0.8,0.4
			c0.3,0.1,0.7,0.1,1.2,0.1c0.3,0,0.5,0,0.7,0c0.2,0,0.4-0.1,0.7-0.1v-1.7c-0.3,0-0.5,0-0.8,0C78.9,20.9,78.8,20.8,78.6,20.8z
			 M90.4,19.9l-0.7-2.8L88.5,13h-2.1l-1.8,7l-1.5-7h-2.4l2.7,9.5h2.3l1.7-6.7l1.7,6.7h2.3l2.7-9.5h-2.4L90.4,19.9z M102.3,13.5
			c-0.4-0.3-0.8-0.5-1.3-0.6c-0.5-0.1-1.1-0.2-1.7-0.2c-2.7,0-4.1,1-4.2,2.9h2.2c0-0.5,0.2-0.8,0.5-1.1c0.3-0.2,0.8-0.4,1.4-0.4
			c0.3,0,0.6,0,0.9,0.1c0.2,0.1,0.4,0.2,0.5,0.4c0.1,0.1,0.2,0.2,0.2,0.3c0.1,0.1,0.1,0.3,0.1,0.4c0,0.2,0,0.6,0,1.1h-0.8
			c-3.7,0-5.6,1.1-5.6,3.3c0,0.5,0.1,0.9,0.3,1.2c0.2,0.3,0.4,0.6,0.7,0.9c0.3,0.2,0.6,0.4,1,0.5c0.4,0.1,0.8,0.2,1.3,0.2
			c0.7,0,1.2-0.1,1.8-0.3c0.5-0.2,1-0.5,1.4-0.8v0.9h2.4v-6.2c0-0.8-0.1-1.4-0.3-1.8C103,14.1,102.7,13.7,102.3,13.5z M101,20
			c-0.1,0.2-0.3,0.3-0.4,0.5c-0.2,0.1-0.3,0.3-0.5,0.4c-0.2,0.1-0.4,0.2-0.6,0.2c-0.2,0.1-0.4,0.1-0.7,0.1c-0.5,0-0.9-0.1-1.2-0.3
			c-0.3-0.2-0.4-0.6-0.4-1c0-0.6,0.2-1,0.7-1.3c0.5-0.3,1.2-0.4,2.2-0.4h0.9V20z M109.8,12.8c-0.5,0-0.9,0.1-1.4,0.4
			c-0.4,0.3-0.8,0.7-1.2,1.3V13h-2.3v9.5h2.4v-6.4c0.3-0.4,0.6-0.7,1-0.9c0.4-0.2,0.8-0.3,1.2-0.3c0.2,0,0.4,0,0.6,0
			c0.2,0,0.3,0.1,0.5,0.1v-2.2c-0.1,0-0.3,0-0.4-0.1C110.1,12.8,109.9,12.8,109.8,12.8z M120,17.7c0-0.8-0.1-1.5-0.3-2.1
			c-0.2-0.6-0.5-1.1-0.9-1.5c-0.4-0.4-0.9-0.7-1.5-1c-0.6-0.2-1.2-0.3-1.9-0.3c-0.7,0-1.4,0.1-2,0.3c-0.6,0.2-1.1,0.6-1.5,1
			c-0.4,0.4-0.7,1-0.9,1.6c-0.2,0.6-0.3,1.3-0.3,2.1c0,0.8,0.1,1.5,0.3,2.1c0.2,0.6,0.5,1.1,0.9,1.6c0.4,0.4,0.9,0.8,1.5,1
			c0.6,0.2,1.3,0.3,2,0.3c0.6,0,1.1-0.1,1.6-0.2c0.5-0.1,0.9-0.3,1.3-0.6c0.4-0.3,0.7-0.6,0.9-1c0.2-0.4,0.4-0.8,0.5-1.3h-2.3
			c-0.2,0.5-0.4,0.9-0.8,1.1c-0.3,0.2-0.8,0.3-1.3,0.3c-0.3,0-0.6-0.1-0.9-0.2c-0.3-0.1-0.5-0.3-0.7-0.5c-0.2-0.2-0.4-0.5-0.5-0.9
			c-0.1-0.4-0.2-0.8-0.2-1.3h6.8V17.7z M113.2,16.8c0.1-0.8,0.3-1.5,0.7-1.9c0.4-0.4,0.9-0.6,1.4-0.6c0.6,0,1.1,0.2,1.5,0.6
			c0.4,0.4,0.6,1,0.7,1.9H113.2z"/>
	</g>
</g>
</svg>
